<?xml version="1.0" standalone="no"?>
<svg xmlns:xlink="http://www.w3.org/1999/xlink" id="wave" style="transform:rotate(180deg); transition: 0.3s" viewBox="0 0 1440 490" version="1.1" xmlns="http://www.w3.org/2000/svg"><defs><linearGradient id="sw-gradient-0" x1="0" x2="0" y1="1" y2="0"><stop stop-color="rgba(105, 48, 195, 1)" offset="0%"/><stop stop-color="rgba(104.959, 65.906, 166.623, 1)" offset="100%"/></linearGradient></defs><path style="transform:translate(0, 0px); opacity:1" fill="url(#sw-gradient-0)" d="M0,196L34.3,196C68.6,196,137,196,206,220.5C274.3,245,343,294,411,285.8C480,278,549,212,617,163.3C685.7,114,754,82,823,106.2C891.4,131,960,212,1029,204.2C1097.1,196,1166,98,1234,114.3C1302.9,131,1371,261,1440,310.3C1508.6,359,1577,327,1646,269.5C1714.3,212,1783,131,1851,155.2C1920,180,1989,310,2057,343C2125.7,376,2194,310,2263,269.5C2331.4,229,2400,212,2469,228.7C2537.1,245,2606,294,2674,261.3C2742.9,229,2811,114,2880,98C2948.6,82,3017,163,3086,220.5C3154.3,278,3223,310,3291,310.3C3360,310,3429,278,3497,277.7C3565.7,278,3634,310,3703,310.3C3771.4,310,3840,278,3909,294C3977.1,310,4046,376,4114,375.7C4182.9,376,4251,310,4320,236.8C4388.6,163,4457,82,4526,65.3C4594.3,49,4663,98,4731,106.2C4800,114,4869,82,4903,65.3L4937.1,49L4937.1,490L4902.9,490C4868.6,490,4800,490,4731,490C4662.9,490,4594,490,4526,490C4457.1,490,4389,490,4320,490C4251.4,490,4183,490,4114,490C4045.7,490,3977,490,3909,490C3840,490,3771,490,3703,490C3634.3,490,3566,490,3497,490C3428.6,490,3360,490,3291,490C3222.9,490,3154,490,3086,490C3017.1,490,2949,490,2880,490C2811.4,490,2743,490,2674,490C2605.7,490,2537,490,2469,490C2400,490,2331,490,2263,490C2194.3,490,2126,490,2057,490C1988.6,490,1920,490,1851,490C1782.9,490,1714,490,1646,490C1577.1,490,1509,490,1440,490C1371.4,490,1303,490,1234,490C1165.7,490,1097,490,1029,490C960,490,891,490,823,490C754.3,490,686,490,617,490C548.6,490,480,490,411,490C342.9,490,274,490,206,490C137.1,490,69,490,34,490L0,490Z"/></svg>